<svg id="Layer_1" data-name="Layer 1" xmlns="http://www.w3.org/2000/svg" width="26" height="27" viewBox="0 0 26 27"><defs><style>.cls-1{fill:#002e59;fill-rule:evenodd;}</style></defs><title>date</title><path class="cls-1" d="M18,7a1,1,0,0,1-1-1V5H7V6a1,1,0,0,1-1.71.71A1,1,0,0,1,5,6V5H3V8H21V5H19V6a1,1,0,0,1-1,1Zm3,3H3V22a1,1,0,0,0,1,1h7.68l-.15-.32a7,7,0,0,1,9.15-9.15l.32.15ZM13,25h.1a7.24,7.24,0,0,0,1,.82,7,7,0,0,0,9.71-9.71,7.24,7.24,0,0,0-.82-1V4a1,1,0,0,0-1-1H19V2a1,1,0,0,0-.29-.71,1,1,0,0,0-1.42,0A1,1,0,0,0,17,2V3H7V2a1,1,0,0,0-.29-.71,1,1,0,0,0-1.42,0A1,1,0,0,0,5,2V3H2a1,1,0,0,0-.71.29A1,1,0,0,0,1,4V22a3,3,0,0,0,3,3Zm5-10a5,5,0,0,0-4.62,3.09A4.93,4.93,0,0,0,13.1,21,5,5,0,0,0,17,24.9a4.93,4.93,0,0,0,2.89-.28A5,5,0,0,0,18,15Zm0,6h3V19H19V16H17v4a1,1,0,0,0,1,1Z"/></svg>