<svg id="Layer_1" data-name="Layer 1" xmlns="http://www.w3.org/2000/svg" width="100" height="104.66" viewBox="0 0 100 104.66"><defs><style>.cls-1,.cls-2{fill:#feb404;}.cls-2{fill-rule:evenodd;}</style></defs><title>face-capture</title><path class="cls-1" d="M23.93,26.83H38.32v1.49H25.45V41H23.93Z"/><path class="cls-1" d="M76.93,26.83H62.55v1.49H75.42V41h1.51Z"/><path class="cls-1" d="M23.93,78.83V64.72h1.52V77.35H38.32v1.48Z"/><path class="cls-1" d="M76.93,78.83H62.55V77.35H75.42V64.72h1.51Z"/><path class="cls-2" d="M40.76,30.4a20.21,20.21,0,0,1,9.67-2.19A20.21,20.21,0,0,1,60.1,30.4a13.61,13.61,0,0,1,7.37,10.16v0L67.75,49a4.7,4.7,0,0,1,1.42.88,3.76,3.76,0,0,1,1.22,2.81c0,.33,0,.7,0,1.1,0,1.14,0,2.51-.05,3.78A12.66,12.66,0,0,1,70,60a3.43,3.43,0,0,1-1,1.85,6.89,6.89,0,0,1-3.43,1.28l-3,8.15v0a9.66,9.66,0,0,1-4.82,5,17.83,17.83,0,0,1-7.21,1.1,17.75,17.75,0,0,1-7.2-1.1,9.68,9.68,0,0,1-4.83-5v0l-3-8.15a6.83,6.83,0,0,1-3.42-1.28A3.45,3.45,0,0,1,30.87,60a12.69,12.69,0,0,1-.35-2.43c-.09-1.27-.07-2.64-.05-3.78,0-.4,0-.77,0-1.1a3.72,3.72,0,0,1,1.22-2.81A4.55,4.55,0,0,1,33.11,49l.28-8.39v0A13.6,13.6,0,0,1,40.76,30.4Zm9.64-.7,0-.74,0,.74a18.61,18.61,0,0,1,8.93,2,12.11,12.11,0,0,1,6.57,9l.31,9.4.58.12a3,3,0,0,1,1.28.69,2.28,2.28,0,0,1,.74,1.73c0,.36,0,.76,0,1.18,0,1.12,0,2.4,0,3.6a11.89,11.89,0,0,1-.31,2.15A2.05,2.05,0,0,1,68,60.69a5.45,5.45,0,0,1-3,1h-.52l-3.37,9A8.16,8.16,0,0,1,57,75a16.17,16.17,0,0,1-6.58,1,16.2,16.2,0,0,1-6.58-1,8.15,8.15,0,0,1-4.06-4.29l-3.37-9h-.53a5.5,5.5,0,0,1-3-1,2,2,0,0,1-.53-1.07A11.07,11.07,0,0,1,32,57.47C32,56.27,32,55,32,53.87c0-.42,0-.82,0-1.18A2.25,2.25,0,0,1,32.74,51,3,3,0,0,1,34,50.27l.57-.12.31-9.4a12.09,12.09,0,0,1,6.58-9A18.58,18.58,0,0,1,50.4,29.7Z"/></svg>