<svg id="Layer_1" data-name="Layer 1" xmlns="http://www.w3.org/2000/svg" width="28" height="28" viewBox="0 0 28 28"><defs><style>.cls-1{fill:#002e59;}.cls-2{fill:#021221;}.cls-3{fill:#f9f9f9;fill-rule:evenodd;}</style></defs><title>form</title><path class="cls-1" d="M24.6,5.6V26.32A1.69,1.69,0,0,1,22.91,28H5A1.69,1.69,0,0,1,3.4,26.32V1.68A1.69,1.69,0,0,1,5,0H19"/><path class="cls-2" d="M19,0V3.92A1.68,1.68,0,0,0,20.72,5.6H24.6Z"/><path class="cls-3" d="M7.85,11.76H7.63a.57.57,0,0,0-.18.12.64.64,0,0,0-.13.19.74.74,0,0,0,0,.21.81.81,0,0,0,0,.22.59.59,0,0,0,.13.18.57.57,0,0,0,.18.12.41.41,0,0,0,.22,0,.47.47,0,0,0,.26,0,.62.62,0,0,0,.19-.12.66.66,0,0,0,.12-.17.45.45,0,0,0,0-.23.37.37,0,0,0,0-.21.5.5,0,0,0-.31-.29A.75.75,0,0,0,7.85,11.76Zm2.24,0H9.87a.57.57,0,0,0-.18.12.5.5,0,0,0-.16.4.41.41,0,0,0,0,.22.46.46,0,0,0,.13.18.66.66,0,0,0,.17.12.45.45,0,0,0,.23,0H20.12a.45.45,0,0,0,.23,0,.66.66,0,0,0,.17-.12.46.46,0,0,0,.13-.18.81.81,0,0,0,0-.22.5.5,0,0,0-.16-.4.57.57,0,0,0-.18-.12H10.09ZM7.85,14H7.63a.46.46,0,0,0-.18.13.4.4,0,0,0-.13.18.54.54,0,0,0,0,.43.46.46,0,0,0,.13.18.59.59,0,0,0,.18.13h.44a.59.59,0,0,0,.18-.13.36.36,0,0,0,.12-.18.41.41,0,0,0,0-.22.55.55,0,0,0-.16-.39.64.64,0,0,0-.1-.13Zm2.24,0H9.87a.59.59,0,0,0-.18.13.46.46,0,0,0-.13.18.74.74,0,0,0,0,.21.81.81,0,0,0,0,.22.46.46,0,0,0,.13.18.59.59,0,0,0,.18.13H20.38a.7.7,0,0,0,.31-.31.81.81,0,0,0,0-.22.74.74,0,0,0,0-.21.7.7,0,0,0-.31-.31H10.09ZM7.85,16.24a.41.41,0,0,0-.22,0,.42.42,0,0,0-.18.11.46.46,0,0,0-.13.18.56.56,0,0,0,0,.44.8.8,0,0,0,.13.19l.18.11a.41.41,0,0,0,.22,0,.81.81,0,0,0,.22,0l.18-.11A.76.76,0,0,0,8.37,17a.37.37,0,0,0,0-.21.45.45,0,0,0,0-.23.36.36,0,0,0-.12-.18.42.42,0,0,0-.18-.11A.41.41,0,0,0,7.85,16.24Zm2.24,0a.41.41,0,0,0-.22,0,.42.42,0,0,0-.18.11.46.46,0,0,0-.13.18.89.89,0,0,0,0,.23.49.49,0,0,0,.17.4l.17.11a.89.89,0,0,0,.23,0H20.19a.89.89,0,0,0,.23,0l.17-.11a.49.49,0,0,0,.17-.4.89.89,0,0,0,0-.23.46.46,0,0,0-.13-.18.42.42,0,0,0-.18-.11.41.41,0,0,0-.22,0Z"/></svg>