<svg id="Layer_1" data-name="Layer 1" xmlns="http://www.w3.org/2000/svg" width="100" height="104.66" viewBox="0 0 100 104.66"><defs><style>.cls-1{fill:#feb404;fill-rule:evenodd;}</style></defs><title>gloves</title><path class="cls-1" d="M42.61,47.5a4.24,4.24,0,0,1,3.07,1.32L54.5,58a4.65,4.65,0,0,1,0,6.39l-2.21,2.3a4.21,4.21,0,0,1-6.14,0l-8.81-9.18a4.65,4.65,0,0,1,0-6.39l2.2-2.3A4.26,4.26,0,0,1,42.61,47.5Zm8.74,18.21,2.21-2.3a3.19,3.19,0,0,0,.88-2.21A3.24,3.24,0,0,0,53.56,59L44.74,49.8a3,3,0,0,0-1-.68,2.82,2.82,0,0,0-1.15-.24,2.89,2.89,0,0,0-1.15.24,3.14,3.14,0,0,0-1,.68l-2.2,2.3a3.22,3.22,0,0,0-.65,3.41,3.12,3.12,0,0,0,.65,1l8.81,9.18a2.93,2.93,0,0,0,4.26,0Z"/><path class="cls-1" d="M76.7,46.08l-1.41,1.41c-.66.66-.21,2,.55,2.5a4.23,4.23,0,0,1,1.47,1.9,4.15,4.15,0,0,1,.2,2.39,4.29,4.29,0,0,1-1.14,2.11L64.3,68.46a8.76,8.76,0,0,1-3.65,2.19l-6,1.83a26.42,26.42,0,0,0-10.94,6.57,4.27,4.27,0,0,1-1.42,1,4.37,4.37,0,0,1-4.77-1L24.21,65.72a4.38,4.38,0,0,1,0-6.19,19.59,19.59,0,0,0,5.55-11.06l1-7a8.88,8.88,0,0,1,2.48-4.94l4.55-4.55a4.21,4.21,0,0,1,5.95,0l2,2c.85.84,2.6,1.42,3.44.58l8-8a4.21,4.21,0,0,1,6,0l1.2,1.2c.84.84,2.59,1.43,3.44.59l1-1.05a4.19,4.19,0,0,1,6,0L76,28.49a4.21,4.21,0,0,1,0,5.95l-1,1.06c-.85.84-.26,2.59.58,3.43l1.2,1.2a4.21,4.21,0,0,1,0,5.95ZM40.64,79a3,3,0,0,0,2.13-.88,6.07,6.07,0,0,0,0-8.58l-9-9a6.05,6.05,0,0,0-8.57,0,3,3,0,0,0,0,4.27L38.51,78.09A3,3,0,0,0,40.64,79ZM63.33,67.5,75.4,55.43a2.85,2.85,0,0,0-4-4l-5.85,5.85a.67.67,0,0,1-.48.2.68.68,0,0,1-.68-.68.67.67,0,0,1,.2-.48L75.74,45.12a2.86,2.86,0,0,0,0-4l-1.2-1.19a2.86,2.86,0,0,0-4,0L59.34,51.07a.69.69,0,0,1-.48.19.68.68,0,0,1-.68-.67.7.7,0,0,1,.2-.49L75,33.48a2.82,2.82,0,0,0,0-4l-1.19-1.2a2.84,2.84,0,0,0-4,0L53.16,44.88a.62.62,0,0,1-.22.15.66.66,0,0,1-.27.06.75.75,0,0,1-.26-.05.86.86,0,0,1-.22-.15.54.54,0,0,1-.15-.22.86.86,0,0,1,0-.27.75.75,0,0,1,0-.26.86.86,0,0,1,.15-.22L63.37,32.75a2.86,2.86,0,0,0,0-4l-1.2-1.19a2.84,2.84,0,0,0-4,0L41.25,44.42a.71.71,0,0,1-.48.19.77.77,0,0,1-.47-.2.67.67,0,0,1-.2-.48.71.71,0,0,1,.19-.48l4.52-4.52a2.85,2.85,0,0,0,0-4l-2-2a2.85,2.85,0,0,0-4,0l-4.55,4.55a7.47,7.47,0,0,0-2.1,4.17l-.27,1.9A23.12,23.12,0,0,0,38.39,63.2l.92.92a21,21,0,0,0,20.95,5.23A7.45,7.45,0,0,0,63.33,67.5Z"/></svg>