<svg id="Layer_1" data-name="Layer 1" xmlns="http://www.w3.org/2000/svg" xmlns:xlink="http://www.w3.org/1999/xlink" width="220" height="228" viewBox="0 0 220 228"><defs><style>.cls-1{fill:url(#linear-gradient);}</style><linearGradient id="linear-gradient" x1="-176.69" y1="402.93" x2="-135.99" y2="169.28" gradientTransform="matrix(1, 0, 0, -1, 262, 374.5)" gradientUnits="userSpaceOnUse"><stop offset="0" stop-color="#feb404"/><stop offset="0.55" stop-color="#f7941c"/><stop offset="1" stop-color="#bb5d05"/></linearGradient></defs><title>half-moon</title><path class="cls-1" d="M214.18,115.65l-1.18-.48c-1.7-24.23-16.28-52.84-47.6-74.32C125.79,13.69,66.64,25,39.68,64.89S23,159.14,62.59,186.3a86.31,86.31,0,0,0,106.85-7.22c2.95-2,8.55-4.15,13.07-.55,6.31,5,4.43,10.36.57,15a14.51,14.51,0,0,1-1.2,1.27,105.1,105.1,0,0,1-130.34,8.31C2.65,169.62-10,102.53,23.27,53.29a106.62,106.62,0,0,1,148.8-28.45C201.7,45.16,216.6,79,214.18,115.65Z"/></svg>