<svg id="Layer_1" data-name="Layer 1" xmlns="http://www.w3.org/2000/svg" width="28" height="28" viewBox="0 0 28 28"><defs><style>.cls-1{fill:#002e59;fill-rule:evenodd;}</style></defs><title>moverse</title><path class="cls-1" d="M22.44,8.91a.61.61,0,0,1-.29.11h-6.7a.43.43,0,0,1-.19-.08l-.12-.07c1.65-1.16,1.7-1.23,2.06-3.06a1.34,1.34,0,0,0,1.55-.56,1.28,1.28,0,0,0,0-1.47,1.37,1.37,0,0,0-1.58-.56V2.78a.92.92,0,0,0-1-1h-.87C15.36.62,14.9,0,14,0s-1.36.62-1.32,1.8h-.9a.92.92,0,0,0-.95,1v.47a1.37,1.37,0,0,0-1.58.56,1.28,1.28,0,0,0,0,1.47,1.36,1.36,0,0,0,1.57.56,3.38,3.38,0,0,0,2,3.06.57.57,0,0,1-.3.15H5.88a.58.58,0,0,1-.32-.1,1.79,1.79,0,0,0-2.85,1.46,1.8,1.8,0,0,0,2.84,1.48.63.63,0,0,1,.32-.1h5a.25.25,0,0,1,.28.21A10.17,10.17,0,0,0,11.55,13a.72.72,0,0,1-.14.83c-.3.36-.57.73-.85,1.11h0l-.36.49.16.11a3.92,3.92,0,0,1,.32.25.29.29,0,0,1,.12.23c-.06.68-.12,1.36-.19,2l-.06.63c0,.12,0,.25-.05.38h0c0,.09,0,.2,0,.3L10,19.2l0,.09v1h0v2a.28.28,0,0,0,0,.12l.09.08c.23.08.23.24.2.43-.09.62-.18,1.23-.26,1.84a.41.41,0,0,1-.24.36c-.5.23-1,.48-1.47.73-.07,0-.17.13-.17.2,0,.5,0,1,0,1.5h0c0,.16,0,.31,0,.47h5v-.16h0a16.5,16.5,0,0,1,.23-4c.16-.75.29-1.51.42-2.27.06-.35.11-.69.17-1l0-.08.06,0c0,.07,0,.14,0,.22s0,.24.07.36c.07.4.14.8.22,1.2.18,1,.36,2,.5,2.94a8.79,8.79,0,0,1,0,1.45h0c0,.21,0,.42,0,.63s0,.34,0,.51V28h5v-.52h0c0-.44,0-.89,0-1.34a.31.31,0,0,0-.22-.34c-.49-.23-1-.47-1.44-.73a.41.41,0,0,1-.13-.1,1.09,1.09,0,0,1-.08-.15c-.1-.67-.2-1.35-.28-2a.28.28,0,0,1,0-.15.35.35,0,0,1,.1-.11.36.36,0,0,0,.21-.37c0-.62,0-1.24,0-1.86v-1h0a.28.28,0,0,1,0-.09l-.51.19c0-.06,0-.11,0-.17l0-.28c-.1-1-.2-1.93-.29-2.9a.34.34,0,0,1,.13-.23c.1-.09.21-.17.33-.26h0l.15-.1-.39-.52h0l-1-1.28a.36.36,0,0,1-.07-.39c.15-.43.3-.86.43-1.3.05-.18.14-.21.31-.21h5a.74.74,0,0,1,.35.1,1.8,1.8,0,0,0,2.84-1.48,1.84,1.84,0,0,0-.49-1.23A1.81,1.81,0,0,0,22.44,8.91ZM17.62,4.08a.45.45,0,0,1,.16,0,.34.34,0,0,1,.14.09.45.45,0,0,1,.1.14.47.47,0,0,1-.09.48.44.44,0,0,1-.31.13.44.44,0,0,1-.45-.45.44.44,0,0,1,.14-.3A.43.43,0,0,1,17.62,4.08ZM10.39,5a.47.47,0,0,1-.17,0,.56.56,0,0,1-.15-.1A.6.6,0,0,1,10,4.67a.57.57,0,0,1,0-.18.32.32,0,0,1,0-.16.42.42,0,0,1,.09-.14l.15-.09a.32.32,0,0,1,.17,0,.44.44,0,0,1,.43.43.5.5,0,0,1-.14.31A.43.43,0,0,1,10.39,5ZM4.5,11.27A.92.92,0,0,1,3.87,11a.94.94,0,0,1-.26-.63A.85.85,0,0,1,3.69,10a.8.8,0,0,1,.2-.29.9.9,0,0,1,.64-.25.93.93,0,0,1,.63.27.91.91,0,0,1,.25.63.8.8,0,0,1-.07.34.72.72,0,0,1-.2.29.85.85,0,0,1-.3.19A1,1,0,0,1,4.5,11.27Zm2.7-.46H6.31V10H7.2Zm1,0V9.94H10.3a.31.31,0,0,1,.24.1c.07.18.13.36.19.56h0c0,.06,0,.13.07.2Zm8.07-8.09v.79l-1-.79ZM14,.91a.47.47,0,0,1,.17,0,.45.45,0,0,1,.14.1.38.38,0,0,1,.09.15.47.47,0,0,1,0,.17.49.49,0,0,1-.14.3.47.47,0,0,1-.31.12.45.45,0,0,1-.31-.14.5.5,0,0,1-.12-.33A.47.47,0,0,1,13.7,1,.4.4,0,0,1,14,.92ZM13.87,3a.26.26,0,0,1,.24,0c.34.26.66.54,1,.82h0a3.47,3.47,0,0,0,.29.25H12.59L13,3.71h0L13.87,3Zm-2.1-.23h.94l-.94.78Zm0,2.59h0c0-.11,0-.22,0-.34H16.2c.21,1.33-.14,2.56-1.52,3a2.3,2.3,0,0,1-1,.08A2.2,2.2,0,0,1,12.05,7a2.15,2.15,0,0,1-.29-1h0c0-.23,0-.46,0-.7Zm2.25,6,1,1.76H13Zm-.44-1.83a.43.43,0,0,1,.13-.3A.44.44,0,0,1,14,9a.47.47,0,0,1,.17,0,.71.71,0,0,1,.14.1.44.44,0,0,1,.1.15.55.55,0,0,1,0,.17.5.5,0,0,1-.14.31.45.45,0,0,1-.31.11.44.44,0,0,1-.31-.13.43.43,0,0,1-.12-.31Zm-2.09.47h1.16a.22.22,0,0,1,.13.08c.13.16.25.33.39.52h0l.13.17-.21.37h0l-.76,1.34c-.29-.85-.56-1.64-.84-2.48Zm.71,17.12H9v-.13H9a1,1,0,0,1,0-.3.25.25,0,0,1,.14-.22c.36-.2.73-.38,1.1-.56l.11-.06a.58.58,0,0,1,.19,0h1.6Zm.11-2.41c0,.06-.1.17-.15.17H10.92L11.17,23l1.29.64c0,.09,0,.18,0,.27h0c0,.24-.08.48-.13.71Zm.38-2.17h0c0,.08,0,.16,0,.25l-.35-.18h0a5,5,0,0,0-.74-.35.9.9,0,0,1-.71-1.14,1.12,1.12,0,0,0,0-.32v-.18l.09,0,1.39.59c.54.23.54.23.44.8h0Zm.74-4.1c-.12.48-.2,1-.28,1.46,0,.22-.07.44-.11.66l-.4-.17c-.39-.17-.75-.32-1.11-.49a.37.37,0,0,1-.13-.3c0-.62.12-1.24.18-1.86l.06-.58c0-.14,0-.27.05-.43v-.15l.43.3a10.45,10.45,0,0,0,.9.63.74.74,0,0,1,.4.94Zm2.29,6.25c0-.24-.09-.48-.13-.75h0a1.18,1.18,0,0,1,0-.2l1.3-.65c.08.59.16,1.15.25,1.74v.06h-1.2c-.07,0-.17-.11-.19-.19ZM18.12,26a3.17,3.17,0,0,0,.41.21c.47.24.47.24.42.81H15.82V25.74a4.33,4.33,0,0,0,.72,0,2.45,2.45,0,0,1,1.58.29Zm-1-4.33a.36.36,0,0,1,0,.11.3.3,0,0,1-.08.08l-1.25.63-.42.2c0-.09,0-.19,0-.28h0c-.06-.3-.12-.6-.16-.9a.15.15,0,0,1,0-.09l.05-.06,1.48-.64h0l.44-.19v1.16Zm-.73-1.83-.94.39h0l-.51.22a2.74,2.74,0,0,1-.05-.28c0-.14-.06-.27-.08-.41l0-.25c-.1-.53-.19-1.05-.27-1.57,0-.07,0-.18,0-.22.4-.3.82-.59,1.25-.9l.49-.35,0,.38c0,.26.05.5.07.75s0,.31.05.47h0l.15,1.42a.28.28,0,0,1-.2.35Zm-.14-4.47.22-.16c-.08-.11-.16-.21-.23-.32h0l-.62-.84a.37.37,0,0,0-.23-.1H12.58a.34.34,0,0,0-.23.1c-.21.27-.41.54-.61.82l-.24.31.06.08.35.25h0l2,1.39a.28.28,0,0,0,.28,0l.94-.67.3-.21.9-.64Zm-.6-3-1-1.72.12-.17h0l.41-.53a.24.24,0,0,1,.13-.07h1.15Zm4.16-1.63H17.21l.06-.21c.06-.19.12-.38.19-.56a.23.23,0,0,1,.18-.09h2.21Zm1.84,0H20.8V10h.89Zm1.78.46a.9.9,0,0,1-.62-.26.88.88,0,0,1-.26-.63.8.8,0,0,1,.07-.34.81.81,0,0,1,.19-.29,1,1,0,0,1,.3-.2,1,1,0,0,1,.35-.06.9.9,0,0,1,.62.26.93.93,0,0,1,.27.63,1,1,0,0,1-.07.34,1.21,1.21,0,0,1-.2.3,1,1,0,0,1-.3.19,1,1,0,0,1-.35.06Zm4.47-7.38a3.13,3.13,0,0,0-.86-1.61l-.63.63a2.3,2.3,0,0,1,0,3.18l.62.64.09-.1c.05-.06.11-.12.16-.19A3.77,3.77,0,0,0,28,5V4.1A.29.29,0,0,1,28,4h0A.56.56,0,0,1,27.94,3.89ZM.9,6.7a3.12,3.12,0,0,1,0-4.4l.63.61a2.31,2.31,0,0,0,0,3.17ZM8.12,4.07H5.87V5H8.12Zm11.76,0h2.24v.88H19.88ZM2.77,4.14l-.56-.58a1.28,1.28,0,0,0,0,1.88l.57-.56Zm22.46.68V4.14l.57-.56a1.37,1.37,0,0,1,.29.42,1.25,1.25,0,0,1,.11.5,1.43,1.43,0,0,1-.09.5,1.55,1.55,0,0,1-.29.43ZM5,4.07h-.9V5H5Zm18.09,0h.88V5h-.88Z"/></svg>