<svg id="Layer_1" data-name="Layer 1" xmlns="http://www.w3.org/2000/svg" width="444" height="136" viewBox="0 0 444 136"><defs><style>.cls-1{fill:#fff;}.cls-2{fill:#feb404;}</style></defs><title>size_table</title><path class="cls-1" d="M115.49,4.52H425a18.5,18.5,0,0,1,0,37H115.49Z"/><path class="cls-1" d="M115.49,51.52H425a18.5,18.5,0,1,1,0,37H115.49Z"/><path class="cls-1" d="M115.49,98.52H425a18.5,18.5,0,0,1,0,37H115.49Z"/><path class="cls-2" d="M4.49,23A18.5,18.5,0,0,1,23,4.52h85.5v37H23A18.5,18.5,0,0,1,4.49,23Z"/><path class="cls-2" d="M4.49,70A18.5,18.5,0,0,1,23,51.52h85.5v37H23A18.5,18.5,0,0,1,4.49,70Z"/><path class="cls-2" d="M4.49,117A18.5,18.5,0,0,1,23,98.52h85.5v37H23A18.5,18.5,0,0,1,4.49,117Z"/><path d="M43.65,20.16a1.79,1.79,0,0,0-.74-1.34,2.86,2.86,0,0,0-1.75-.48,3.36,3.36,0,0,0-1.27.22,1.87,1.87,0,0,0-.8.57,1.4,1.4,0,0,0-.27.84,1.17,1.17,0,0,0,.17.68,1.62,1.62,0,0,0,.5.51,3.92,3.92,0,0,0,.74.36c.28.1.58.18.89.26l1.31.31a8.76,8.76,0,0,1,1.75.57,5.07,5.07,0,0,1,1.38.87,3.72,3.72,0,0,1,.9,1.22,3.77,3.77,0,0,1,.33,1.61,4,4,0,0,1-.68,2.32,4.3,4.3,0,0,1-1.93,1.51,7.68,7.68,0,0,1-3,.53,8,8,0,0,1-3.07-.54,4.45,4.45,0,0,1-2-1.59A4.7,4.7,0,0,1,35.29,26h3a2.11,2.11,0,0,0,1.42,1.95,4.18,4.18,0,0,0,2.79,0,2,2,0,0,0,.9-.63,1.48,1.48,0,0,0,.32-.93,1.23,1.23,0,0,0-.29-.83,2.29,2.29,0,0,0-.84-.57,9.77,9.77,0,0,0-1.34-.42l-1.59-.4a6.61,6.61,0,0,1-2.9-1.4,3.26,3.26,0,0,1-1.06-2.56,3.88,3.88,0,0,1,.7-2.31,4.77,4.77,0,0,1,2-1.54,6.92,6.92,0,0,1,2.84-.56,6.74,6.74,0,0,1,2.83.56,4.46,4.46,0,0,1,1.89,1.54,4,4,0,0,1,.69,2.29ZM48.8,30.52V19.61h3V30.52ZM50.32,18.2a1.65,1.65,0,0,1-1.15-.44,1.47,1.47,0,0,1-.48-1.09,1.39,1.39,0,0,1,.48-1.07,1.58,1.58,0,0,1,1.15-.46,1.57,1.57,0,0,1,1.15.46A1.37,1.37,0,0,1,52,16.67a1.44,1.44,0,0,1-.49,1.09A1.63,1.63,0,0,1,50.32,18.2ZM54.2,30.52V28.71l5.34-6.61V22H54.38V19.61h8.8v2l-5,6.45v.07h5.2v2.42Zm16.14.21a5.89,5.89,0,0,1-2.9-.68,4.73,4.73,0,0,1-1.86-1.95,6.37,6.37,0,0,1-.65-3,6.32,6.32,0,0,1,.65-2.95,4.82,4.82,0,0,1,1.84-2,5.3,5.3,0,0,1,2.8-.71,5.52,5.52,0,0,1,2,.35,4.46,4.46,0,0,1,1.63,1A4.65,4.65,0,0,1,75,22.58a6.87,6.87,0,0,1,.4,2.43v.83H66.13V24H72.5a2.28,2.28,0,0,0-.29-1.15,2,2,0,0,0-.79-.79,2.16,2.16,0,0,0-1.15-.29,2.31,2.31,0,0,0-2,1.16,2.32,2.32,0,0,0-.3,1.17v1.78a3.18,3.18,0,0,0,.29,1.4,2.16,2.16,0,0,0,.86.91,2.53,2.53,0,0,0,1.32.32,2.73,2.73,0,0,0,.92-.14A1.87,1.87,0,0,0,72,27.9a1.73,1.73,0,0,0,.45-.69l2.8.18a3.75,3.75,0,0,1-.87,1.76,4.41,4.41,0,0,1-1.69,1.17A6.48,6.48,0,0,1,70.34,30.73Z"/><path d="M38.89,77.52,34.92,63h1.79l3,11.85h.14L43,63h2l3.1,11.85h.14l3-11.85H53l-4,14.55H47.25L44,65.93h-.12L40.71,77.52Zm19.68.23a5.17,5.17,0,0,1-2.72-.7,4.72,4.72,0,0,1-1.76-2,6.77,6.77,0,0,1-.61-2.94,6.92,6.92,0,0,1,.61-3,5,5,0,0,1,1.72-2,4.64,4.64,0,0,1,2.59-.72,5.11,5.11,0,0,1,1.68.28,4.24,4.24,0,0,1,1.51.92,4.41,4.41,0,0,1,1.09,1.68,7.15,7.15,0,0,1,.4,2.57v.71h-8.4V71.18h6.7A3.51,3.51,0,0,0,61,69.54a2.76,2.76,0,0,0-1-1.15A2.88,2.88,0,0,0,58.4,68a3,3,0,0,0-1.74.5,3.27,3.27,0,0,0-1.11,1.28,3.75,3.75,0,0,0-.39,1.69v1a4.73,4.73,0,0,0,.42,2.1,3,3,0,0,0,1.21,1.3,3.53,3.53,0,0,0,1.78.44,3.67,3.67,0,0,0,1.19-.18,2.59,2.59,0,0,0,.93-.57,2.82,2.82,0,0,0,.61-.95l1.61.45a3.52,3.52,0,0,1-.86,1.45,4.08,4.08,0,0,1-1.49,1A5.43,5.43,0,0,1,58.57,77.75Zm7.06-.23V66.61h1.68V77.52Zm.86-12.73a1.21,1.21,0,0,1-.85-.33,1.1,1.1,0,0,1-.35-.81,1.08,1.08,0,0,1,.35-.8,1.21,1.21,0,0,1,.85-.33,1.16,1.16,0,0,1,.83.33,1.05,1.05,0,0,1,.36.8,1.07,1.07,0,0,1-.36.81A1.16,1.16,0,0,1,66.49,64.79Zm8.29,17a6.1,6.1,0,0,1-2.08-.32,4.27,4.27,0,0,1-1.46-.81,4.52,4.52,0,0,1-.92-1.06l1.34-.94c.15.2.34.43.57.68a3,3,0,0,0,1,.68,3.76,3.76,0,0,0,1.59.29A3.52,3.52,0,0,0,77,79.72a2.31,2.31,0,0,0,.86-2V75.5h-.14a9,9,0,0,1-.52.74,3,3,0,0,1-1,.77,3.52,3.52,0,0,1-1.69.34,4.52,4.52,0,0,1-2.37-.63,4.33,4.33,0,0,1-1.66-1.82,6.36,6.36,0,0,1-.6-2.89,6.79,6.79,0,0,1,.59-2.92,4.46,4.46,0,0,1,1.64-1.93,4.32,4.32,0,0,1,2.43-.69,3.51,3.51,0,0,1,1.69.35,2.89,2.89,0,0,1,1,.8c.23.29.41.53.53.72h.17V66.61H79.5V77.83a3.79,3.79,0,0,1-.64,2.29,3.69,3.69,0,0,1-1.7,1.3A6.43,6.43,0,0,1,74.78,81.84Zm0-6a3,3,0,0,0,1.7-.46,2.83,2.83,0,0,0,1.06-1.33A5.4,5.4,0,0,0,77.85,72a5.77,5.77,0,0,0-.35-2.08,3.2,3.2,0,0,0-1-1.42,3.18,3.18,0,0,0-3.5,0A3.34,3.34,0,0,0,71.89,70a5.67,5.67,0,0,0-.34,2,5.23,5.23,0,0,0,.35,2A3,3,0,0,0,73,75.35,3,3,0,0,0,74.73,75.84ZM84.24,71v6.56H82.57V63h1.67v5.34h.15A3.06,3.06,0,0,1,85.54,67a3.76,3.76,0,0,1,2.06-.5,4.18,4.18,0,0,1,2,.44,3.06,3.06,0,0,1,1.3,1.36,5.09,5.09,0,0,1,.47,2.32v6.93H89.64V70.7a2.79,2.79,0,0,0-.67-2A2.43,2.43,0,0,0,87.11,68a3.07,3.07,0,0,0-1.47.35,2.53,2.53,0,0,0-1,1A3.34,3.34,0,0,0,84.24,71Zm14.89-4.35V68H93.48V66.61Zm-4-2.61H96.8V74.39A2.15,2.15,0,0,0,97,75.46a1.06,1.06,0,0,0,.54.47,2.28,2.28,0,0,0,.7.11,2.81,2.81,0,0,0,.45,0L99,76l.34,1.5a3.45,3.45,0,0,1-.48.13,3.31,3.31,0,0,1-.77.07,3.24,3.24,0,0,1-1.39-.31,2.74,2.74,0,0,1-1.13-.93,2.67,2.67,0,0,1-.44-1.57Z"/><path d="M36.25,124.52V110H45v1.57H38v4.91h6.31V118H38v6.51Zm15.29.23a5.17,5.17,0,0,1-2.72-.7,4.65,4.65,0,0,1-1.76-2,6.63,6.63,0,0,1-.61-2.94,6.78,6.78,0,0,1,.61-3,4.88,4.88,0,0,1,1.72-2,4.64,4.64,0,0,1,2.59-.72,5.15,5.15,0,0,1,1.68.28,4.24,4.24,0,0,1,1.51.92,4.41,4.41,0,0,1,1.09,1.68,7.15,7.15,0,0,1,.4,2.57v.71H47.64v-1.45h6.71a3.51,3.51,0,0,0-.37-1.64,2.76,2.76,0,0,0-1-1.15,2.88,2.88,0,0,0-1.57-.42,3,3,0,0,0-1.74.5,3.27,3.27,0,0,0-1.11,1.28,3.75,3.75,0,0,0-.39,1.69v1a4.73,4.73,0,0,0,.42,2.1,3.09,3.09,0,0,0,1.2,1.3,3.6,3.6,0,0,0,1.79.44,3.72,3.72,0,0,0,1.19-.18,2.59,2.59,0,0,0,.93-.57,2.66,2.66,0,0,0,.6-.95l1.62.45a3.52,3.52,0,0,1-.86,1.45,4.16,4.16,0,0,1-1.49,1A5.43,5.43,0,0,1,51.54,124.75Zm11.64,0a5.17,5.17,0,0,1-2.72-.7,4.65,4.65,0,0,1-1.76-2,6.77,6.77,0,0,1-.61-2.94,6.92,6.92,0,0,1,.61-3,4.88,4.88,0,0,1,1.72-2,4.64,4.64,0,0,1,2.59-.72,5.15,5.15,0,0,1,1.68.28,4.24,4.24,0,0,1,1.51.92,4.41,4.41,0,0,1,1.09,1.68,7.15,7.15,0,0,1,.4,2.57v.71h-8.4v-1.45H66a3.51,3.51,0,0,0-.37-1.64,2.76,2.76,0,0,0-1-1.15A2.88,2.88,0,0,0,63,115a3,3,0,0,0-1.74.5,3.27,3.27,0,0,0-1.11,1.28,3.75,3.75,0,0,0-.39,1.69v1a4.73,4.73,0,0,0,.42,2.1,3.09,3.09,0,0,0,1.2,1.3,3.6,3.6,0,0,0,1.79.44,3.67,3.67,0,0,0,1.19-.18,2.59,2.59,0,0,0,.93-.57,2.66,2.66,0,0,0,.6-.95l1.62.45a3.52,3.52,0,0,1-.86,1.45,4.16,4.16,0,0,1-1.49,1A5.43,5.43,0,0,1,63.18,124.75ZM75,113.61V115H69.33v-1.42ZM71,111h1.68v10.39a2.28,2.28,0,0,0,.2,1.07,1.15,1.15,0,0,0,.54.47,2.4,2.4,0,0,0,.71.11,2.81,2.81,0,0,0,.45,0l.29-.05.34,1.5a3.89,3.89,0,0,1-.48.13,3.31,3.31,0,0,1-.77.07,3.38,3.38,0,0,1-1.39-.3,2.85,2.85,0,0,1-1.13-.94,2.67,2.67,0,0,1-.44-1.57Z"/><path d="M154.09,20.16a1.78,1.78,0,0,0-.73-1.34,2.86,2.86,0,0,0-1.75-.48,3.36,3.36,0,0,0-1.27.22,1.87,1.87,0,0,0-.8.57,1.4,1.4,0,0,0-.27.84,1.25,1.25,0,0,0,.16.68,1.77,1.77,0,0,0,.51.51,3.92,3.92,0,0,0,.74.36c.28.1.58.18.89.26l1.31.31a9,9,0,0,1,1.75.57,4.86,4.86,0,0,1,1.37.87,3.75,3.75,0,0,1,.91,1.22,3.92,3.92,0,0,1,.33,1.61,4,4,0,0,1-.68,2.32,4.35,4.35,0,0,1-1.93,1.51,7.7,7.7,0,0,1-3,.53,8,8,0,0,1-3.06-.54,4.54,4.54,0,0,1-2-1.59,4.86,4.86,0,0,1-.76-2.64h3a2.15,2.15,0,0,0,.42,1.22,2.27,2.27,0,0,0,1,.73,3.8,3.8,0,0,0,1.43.25,3.67,3.67,0,0,0,1.35-.23,2.12,2.12,0,0,0,.91-.63,1.48,1.48,0,0,0,.32-.93,1.23,1.23,0,0,0-.29-.83A2.29,2.29,0,0,0,153,25a10,10,0,0,0-1.35-.42l-1.58-.4a6.56,6.56,0,0,1-2.9-1.4,3.22,3.22,0,0,1-1.06-2.56,3.81,3.81,0,0,1,.7-2.31,4.71,4.71,0,0,1,2-1.54,6.92,6.92,0,0,1,2.84-.56,6.74,6.74,0,0,1,2.83.56,4.46,4.46,0,0,1,1.89,1.54,4.12,4.12,0,0,1,.69,2.29Z"/><path d="M224.61,16h3.79l4,9.78h.17l4-9.78h3.79V30.52h-3V21.05h-.12l-3.77,9.4h-2L227.71,21h-.12v9.5h-3Z"/><path d="M309.08,30.52V16h3.08V28h6.23v2.54Z"/><path d="M385.82,16l2.93,5h.11l2.95-5h3.47l-4.43,7.28,4.53,7.27h-3.53l-3-5h-.11l-3,5h-3.53l4.56-7.27L382.33,16Zm11.41,14.55V16h3.08V28h6.23v2.54Z"/><path d="M127.37,112.34v10.18h-2.16v-8.14h-.06l-2.33,1.46v-1.91l2.52-1.59Zm6.13,10.32a4.31,4.31,0,0,1-1.87-.39,3.23,3.23,0,0,1-1.31-1.07,2.71,2.71,0,0,1-.5-1.56h2.09a1.27,1.27,0,0,0,.5,1,1.71,1.71,0,0,0,1.09.37,1.77,1.77,0,0,0,.9-.23,1.61,1.61,0,0,0,.61-.63,1.88,1.88,0,0,0,.22-.93,1.93,1.93,0,0,0-.22-1,1.59,1.59,0,0,0-.63-.63,1.79,1.79,0,0,0-.91-.24,2.1,2.1,0,0,0-.87.19,1.64,1.64,0,0,0-.65.5l-1.91-.34.48-5.37h6.23v1.76H132.3l-.27,2.55h.06a2,2,0,0,1,.81-.63,2.83,2.83,0,0,1,1.22-.25,3.21,3.21,0,0,1,1.64.43,3.08,3.08,0,0,1,1.13,1.19,3.75,3.75,0,0,1-.06,3.56,3.4,3.4,0,0,1-1.34,1.26A4.2,4.2,0,0,1,133.5,122.66Zm9,0a4.36,4.36,0,0,1-1.88-.39,3.2,3.2,0,0,1-1.3-1.07,2.72,2.72,0,0,1-.51-1.56h2.09a1.31,1.31,0,0,0,.5,1,1.83,1.83,0,0,0,2,.14,1.54,1.54,0,0,0,.61-.63,1.89,1.89,0,0,0,.23-.93,1.94,1.94,0,0,0-.23-1,1.63,1.63,0,0,0-.62-.63,1.84,1.84,0,0,0-.91-.24,2,2,0,0,0-.87.19,1.51,1.51,0,0,0-.65.5l-1.92-.34.48-5.37h6.23v1.76h-4.45l-.26,2.55h.06a1.91,1.91,0,0,1,.81-.63,2.79,2.79,0,0,1,1.21-.25,3.08,3.08,0,0,1,2.78,1.62,3.49,3.49,0,0,1,.41,1.73,3.39,3.39,0,0,1-1.81,3.09A4.23,4.23,0,0,1,142.53,122.66Zm13.32-6.07v1.68h-4.64v-1.68Zm6.21-4.25v10.18h-2.15v-8.14h-.06l-2.33,1.46v-1.91l2.52-1.59Zm2.83,10.18,4.22-8.35v-.07h-4.92v-1.76h7.15v1.78l-4.23,8.4Zm11.5.14a4.36,4.36,0,0,1-1.88-.39,3.27,3.27,0,0,1-1.3-1.07,2.71,2.71,0,0,1-.5-1.56h2.09a1.3,1.3,0,0,0,.49,1,1.84,1.84,0,0,0,2,.14,1.61,1.61,0,0,0,.61-.63,1.88,1.88,0,0,0,.22-.93,1.83,1.83,0,0,0-.23-1,1.51,1.51,0,0,0-.62-.63,1.81,1.81,0,0,0-.91-.24,2,2,0,0,0-.87.19,1.58,1.58,0,0,0-.65.5l-1.91-.34.48-5.37h6.22v1.76h-4.45l-.26,2.55H175a2,2,0,0,1,.81-.63,2.82,2.82,0,0,1,1.21-.25,3.25,3.25,0,0,1,1.65.43,3.08,3.08,0,0,1,1.13,1.19,3.5,3.5,0,0,1-1.4,4.82A4.2,4.2,0,0,1,176.39,122.66Z"/><path d="M208.18,112.34v10.18H206v-8.14H206l-2.33,1.46v-1.91l2.52-1.59ZM211,122.52l4.22-8.35v-.07h-4.91v-1.76h7.14v1.78l-4.22,8.4Zm11.62.14a4.59,4.59,0,0,1-1.52-.27,3.38,3.38,0,0,1-1.3-.84,4,4,0,0,1-.92-1.54,7.27,7.27,0,0,1-.33-2.35,8.51,8.51,0,0,1,.29-2.3,5.31,5.31,0,0,1,.84-1.72,3.64,3.64,0,0,1,1.31-1.07,3.76,3.76,0,0,1,1.7-.37,3.85,3.85,0,0,1,1.8.4,3.24,3.24,0,0,1,1.25,1.06,3.29,3.29,0,0,1,.58,1.52H224.2a1.47,1.47,0,0,0-.52-.83,1.56,1.56,0,0,0-1-.31,1.65,1.65,0,0,0-1.51.87,4.6,4.6,0,0,0-.52,2.35h.07a2.29,2.29,0,0,1,.61-.77,2.77,2.77,0,0,1,.89-.49,3.15,3.15,0,0,1,1.06-.18,3,3,0,0,1,1.61.43,3.12,3.12,0,0,1,1.12,1.16,3.79,3.79,0,0,1-.08,3.54,3.33,3.33,0,0,1-1.34,1.26A4.19,4.19,0,0,1,222.62,122.66Zm0-1.69a1.7,1.7,0,0,0,.89-.24,1.73,1.73,0,0,0,.61-.65,1.92,1.92,0,0,0,0-1.82,1.64,1.64,0,0,0-1.49-.88,1.58,1.58,0,0,0-.69.14,1.75,1.75,0,0,0-.55.38,1.85,1.85,0,0,0-.37.58,1.93,1.93,0,0,0,.09,1.59,1.76,1.76,0,0,0,.62.65A1.57,1.57,0,0,0,222.61,121ZM236,116.59v1.68h-4.64v-1.68Zm6.21-4.25v10.18H240v-8.14H240l-2.33,1.46v-1.91l2.52-1.59Zm6.22,10.32a5.23,5.23,0,0,1-2-.38,3.4,3.4,0,0,1-1.4-1,2.35,2.35,0,0,1-.51-1.48,2.44,2.44,0,0,1,.29-1.17,2.7,2.7,0,0,1,1.92-1.35v-.07a2.21,2.21,0,0,1-1.32-.79,2.26,2.26,0,0,1-.51-1.46,2.33,2.33,0,0,1,.46-1.41,3.06,3.06,0,0,1,1.27-1,4.88,4.88,0,0,1,3.68,0,3.06,3.06,0,0,1,1.27,1,2.37,2.37,0,0,1,.47,1.41,2.28,2.28,0,0,1-.52,1.46,2.21,2.21,0,0,1-1.31.79v.07a2.72,2.72,0,0,1,1.9,1.35,2.41,2.41,0,0,1-.21,2.65,3.4,3.4,0,0,1-1.4,1A5.19,5.19,0,0,1,248.4,122.66Zm0-1.58a2,2,0,0,0,.9-.19,1.47,1.47,0,0,0,.59-.51,1.48,1.48,0,0,0,0-1.55,1.52,1.52,0,0,0-.61-.54,1.9,1.9,0,0,0-.88-.2,1.93,1.93,0,0,0-.88.2,1.52,1.52,0,0,0-.61.54,1.37,1.37,0,0,0-.22.78,1.44,1.44,0,0,0,.21.77,1.53,1.53,0,0,0,.61.51A1.91,1.91,0,0,0,248.4,121.08Zm0-4.55a1.55,1.55,0,0,0,.76-.18,1.21,1.21,0,0,0,.52-.48,1.4,1.4,0,0,0,0-1.41,1.22,1.22,0,0,0-.51-.47,1.71,1.71,0,0,0-.77-.17,1.67,1.67,0,0,0-.76.17,1.28,1.28,0,0,0-.53.47,1.35,1.35,0,0,0-.18.7,1.28,1.28,0,0,0,.19.71,1.21,1.21,0,0,0,.52.48A1.58,1.58,0,0,0,248.4,116.53Zm9.18,6.13a4.33,4.33,0,0,1-1.88-.39,3.2,3.2,0,0,1-1.3-1.07,2.72,2.72,0,0,1-.51-1.56H256a1.27,1.27,0,0,0,.5,1,1.83,1.83,0,0,0,2,.14,1.54,1.54,0,0,0,.61-.63,1.89,1.89,0,0,0,.23-.93,1.94,1.94,0,0,0-.23-1,1.63,1.63,0,0,0-.62-.63,1.84,1.84,0,0,0-.91-.24,2,2,0,0,0-.87.19,1.51,1.51,0,0,0-.65.5l-1.92-.34.48-5.37h6.23v1.76h-4.45l-.26,2.55h.06A1.91,1.91,0,0,1,257,116a2.79,2.79,0,0,1,1.21-.25,3.08,3.08,0,0,1,2.78,1.62,3.49,3.49,0,0,1,.41,1.73,3.39,3.39,0,0,1-1.81,3.09A4.23,4.23,0,0,1,257.58,122.66Z"/><path d="M289.49,112.34v10.18h-2.16v-8.14h-.06l-2.33,1.46v-1.91l2.52-1.59ZM295,122.66a5.26,5.26,0,0,1-2-.38,3.47,3.47,0,0,1-1.4-1,2.4,2.4,0,0,1-.5-1.48,2.34,2.34,0,0,1,.29-1.17,2.6,2.6,0,0,1,.79-.89,2.69,2.69,0,0,1,1.12-.46v-.07a2.21,2.21,0,0,1-1.32-.79,2.35,2.35,0,0,1,0-2.87,3.09,3.09,0,0,1,1.26-1,4.88,4.88,0,0,1,3.68,0,3.06,3.06,0,0,1,1.27,1,2.3,2.3,0,0,1,.47,1.41,2.29,2.29,0,0,1-1.83,2.25v.07a2.67,2.67,0,0,1,1.9,1.35,2.46,2.46,0,0,1,.31,1.17,2.42,2.42,0,0,1-.52,1.48,3.33,3.33,0,0,1-1.4,1A5.19,5.19,0,0,1,295,122.66Zm0-1.58a2,2,0,0,0,.9-.19,1.57,1.57,0,0,0,.6-.51,1.44,1.44,0,0,0,.21-.77,1.37,1.37,0,0,0-.22-.78,1.52,1.52,0,0,0-.61-.54,1.87,1.87,0,0,0-.88-.2,2,2,0,0,0-.88.2,1.59,1.59,0,0,0-.61.54,1.41,1.41,0,0,0,.6,2.06A2,2,0,0,0,295,121.08Zm0-4.55a1.55,1.55,0,0,0,.76-.18,1.23,1.23,0,0,0,.53-.48,1.4,1.4,0,0,0,0-1.41,1.31,1.31,0,0,0-.52-.47,1.68,1.68,0,0,0-.77-.17,1.7,1.7,0,0,0-.76.17,1.25,1.25,0,0,0-.52.47,1.27,1.27,0,0,0-.19.7,1.37,1.37,0,0,0,.19.71,1.27,1.27,0,0,0,.52.48A1.61,1.61,0,0,0,295,116.53Zm8.67,6.13a4.63,4.63,0,0,1-1.52-.27,3.38,3.38,0,0,1-1.3-.84,4,4,0,0,1-.91-1.54,7,7,0,0,1-.34-2.35,8.49,8.49,0,0,1,.3-2.3,5.1,5.1,0,0,1,.83-1.72,3.73,3.73,0,0,1,1.31-1.07,3.79,3.79,0,0,1,1.7-.37,3.85,3.85,0,0,1,1.8.4,3.35,3.35,0,0,1,1.26,1.06,3.27,3.27,0,0,1,.57,1.52h-2.12a1.42,1.42,0,0,0-.52-.83,1.54,1.54,0,0,0-1-.31,1.66,1.66,0,0,0-1.51.87,4.7,4.7,0,0,0-.52,2.35h.07a2.32,2.32,0,0,1,.62-.77,2.67,2.67,0,0,1,.89-.49,3.06,3.06,0,0,1,1.06-.18,3,3,0,0,1,2.72,1.59A3.75,3.75,0,0,1,307,121a3.39,3.39,0,0,1-1.34,1.26A4.2,4.2,0,0,1,303.67,122.66Zm0-1.69a1.67,1.67,0,0,0,.89-.24,1.76,1.76,0,0,0,.62-.65,2,2,0,0,0,0-1.82,1.7,1.7,0,0,0-.61-.64,1.77,1.77,0,0,0-1.58-.1,1.75,1.75,0,0,0-.55.38,2.05,2.05,0,0,0-.37.58,1.93,1.93,0,0,0,.09,1.59,1.84,1.84,0,0,0,.62.65A1.59,1.59,0,0,0,303.66,121Zm12-4.38v1.68H311v-1.68Zm8.06-4.25v10.18h-2.16v-8.14h-.06l-2.33,1.46v-1.91l2.52-1.59Zm5.4-.14a4.52,4.52,0,0,1,1.51.26,3.55,3.55,0,0,1,1.3.84,4,4,0,0,1,.91,1.53,7.15,7.15,0,0,1,.35,2.33,8.21,8.21,0,0,1-.3,2.32,5.15,5.15,0,0,1-.83,1.73,3.64,3.64,0,0,1-1.3,1.08,4.19,4.19,0,0,1-3.51,0,3.37,3.37,0,0,1-1.26-1.07,3.28,3.28,0,0,1-.57-1.55h2.12a1.46,1.46,0,0,0,.52.87,1.6,1.6,0,0,0,1,.3,1.67,1.67,0,0,0,1.51-.86,4.72,4.72,0,0,0,.52-2.38H331a2.42,2.42,0,0,1-.62.77,3,3,0,0,1-.89.49,3.31,3.31,0,0,1-2.66-.25,3.12,3.12,0,0,1-1.12-1.16,3.49,3.49,0,0,1-.4-1.69,3.4,3.4,0,0,1,.47-1.83,3.34,3.34,0,0,1,1.33-1.25A4,4,0,0,1,329.08,112.2Zm0,1.69a1.68,1.68,0,0,0-.9.24,1.81,1.81,0,0,0-.62.64,1.71,1.71,0,0,0-.21.9,1.93,1.93,0,0,0,.21.9,1.78,1.78,0,0,0,.61.64,1.73,1.73,0,0,0,.89.23,1.64,1.64,0,0,0,.69-.14,1.75,1.75,0,0,0,.55-.38,1.93,1.93,0,0,0,.37-.57,1.81,1.81,0,0,0,.14-.69,1.89,1.89,0,0,0-.23-.88,1.76,1.76,0,0,0-.62-.65A1.66,1.66,0,0,0,329.1,113.89Zm8.83,8.85a3.85,3.85,0,0,1-2.21-.63,4,4,0,0,1-1.41-1.81,7.47,7.47,0,0,1-.49-2.86,7.3,7.3,0,0,1,.49-2.84,4,4,0,0,1,1.42-1.79,4.27,4.27,0,0,1,4.4,0,4,4,0,0,1,1.42,1.79,7.12,7.12,0,0,1,.49,2.84,7.44,7.44,0,0,1-.49,2.86,4,4,0,0,1-1.42,1.82A3.85,3.85,0,0,1,337.93,122.74Zm0-1.78a1.6,1.6,0,0,0,1.4-.88,5.19,5.19,0,0,0,.51-2.64,6.62,6.62,0,0,0-.23-1.93,2.49,2.49,0,0,0-.67-1.16,1.44,1.44,0,0,0-1-.39,1.57,1.57,0,0,0-1.39.87,5.25,5.25,0,0,0-.53,2.61,6.85,6.85,0,0,0,.24,2,2.45,2.45,0,0,0,.67,1.17A1.44,1.44,0,0,0,337.93,121Z"/><path d="M372.41,112.34v10.18h-2.15v-8.14h-.06l-2.33,1.46v-1.91l2.52-1.59Zm5.26-.14a4.58,4.58,0,0,1,1.52.26,3.63,3.63,0,0,1,1.3.84,4.1,4.1,0,0,1,.91,1.53,7.17,7.17,0,0,1,.34,2.33,8.61,8.61,0,0,1-.29,2.32,5.15,5.15,0,0,1-.83,1.73,3.67,3.67,0,0,1-1.31,1.08,4.19,4.19,0,0,1-3.51,0,3.37,3.37,0,0,1-1.26-1.07,3.5,3.5,0,0,1-.57-1.55h2.12a1.47,1.47,0,0,0,.53.87,1.57,1.57,0,0,0,1,.3,1.66,1.66,0,0,0,1.51-.86,4.62,4.62,0,0,0,.52-2.38h-.07a2.39,2.39,0,0,1-.61.77,3.25,3.25,0,0,1-3.56.24,3,3,0,0,1-1.11-1.16,3.74,3.74,0,0,1,.06-3.52,3.37,3.37,0,0,1,1.34-1.25A4,4,0,0,1,377.67,112.2Zm0,1.69a1.71,1.71,0,0,0-.9.24,1.78,1.78,0,0,0-.61.64,2,2,0,0,0,0,1.8,1.61,1.61,0,0,0,1.49.87,1.58,1.58,0,0,0,.69-.14,1.64,1.64,0,0,0,.55-.38,1.75,1.75,0,0,0,.37-.57,1.81,1.81,0,0,0,.14-.69,1.78,1.78,0,0,0-.23-.88,1.68,1.68,0,0,0-.62-.65A1.64,1.64,0,0,0,377.69,113.89Zm9.13-1.55v10.18h-2.15v-8.14h-.06l-2.33,1.46v-1.91l2.52-1.59Zm8.76,4.25v1.68h-4.64v-1.68Zm.66,5.93V121l3.62-3.36c.31-.3.57-.57.78-.8a3.37,3.37,0,0,0,.48-.7,1.79,1.79,0,0,0,.16-.76,1.41,1.41,0,0,0-.2-.77,1.43,1.43,0,0,0-.56-.5,1.84,1.84,0,0,0-1.61,0,1.4,1.4,0,0,0-.54.54,1.74,1.74,0,0,0-.19.84h-2a3.26,3.26,0,0,1,.45-1.73,3,3,0,0,1,1.27-1.14,4.16,4.16,0,0,1,1.88-.4,4.33,4.33,0,0,1,1.9.39,3,3,0,0,1,1.27,1.06,2.75,2.75,0,0,1,.45,1.56,2.9,2.9,0,0,1-.23,1.14,4.76,4.76,0,0,1-.8,1.25,17.38,17.38,0,0,1-1.62,1.63l-1.49,1.46v.07h4.28v1.76Zm12,.22a3.83,3.83,0,0,1-2.21-.63,4.08,4.08,0,0,1-1.42-1.81,7.48,7.48,0,0,1-.48-2.86,7.3,7.3,0,0,1,.49-2.84,4,4,0,0,1,5.82-1.79,4,4,0,0,1,1.42,1.79,7.3,7.3,0,0,1,.49,2.84,7.43,7.43,0,0,1-.5,2.86,4,4,0,0,1-1.41,1.82A3.87,3.87,0,0,1,408.21,122.74Zm0-1.78a1.6,1.6,0,0,0,1.4-.88,5.3,5.3,0,0,0,.51-2.64,6.59,6.59,0,0,0-.24-1.93,2.4,2.4,0,0,0-.66-1.16,1.45,1.45,0,0,0-1-.39,1.56,1.56,0,0,0-1.39.87,5.15,5.15,0,0,0-.53,2.61,7.27,7.27,0,0,0,.23,2,2.62,2.62,0,0,0,.67,1.17A1.48,1.48,0,0,0,408.21,121Zm8.8,1.78a3.83,3.83,0,0,1-2.21-.63,4,4,0,0,1-1.42-1.81,8.62,8.62,0,0,1,0-5.7,3.66,3.66,0,0,1,3.62-2.4,3.83,3.83,0,0,1,2.19.61,4,4,0,0,1,1.43,1.79,7.3,7.3,0,0,1,.49,2.84,7.43,7.43,0,0,1-.5,2.86,4,4,0,0,1-1.41,1.82A3.87,3.87,0,0,1,417,122.74Zm0-1.78a1.57,1.57,0,0,0,1.39-.88,5.28,5.28,0,0,0,.52-2.64,6.59,6.59,0,0,0-.24-1.93,2.48,2.48,0,0,0-.66-1.16,1.47,1.47,0,0,0-1-.39,1.59,1.59,0,0,0-1.4.87,5.27,5.27,0,0,0-.52,2.61,7.27,7.27,0,0,0,.23,2,2.53,2.53,0,0,0,.67,1.17A1.48,1.48,0,0,0,417,121Z"/><path d="M130.9,75.66a4.59,4.59,0,0,1-1.52-.27,3.38,3.38,0,0,1-1.3-.84,4,4,0,0,1-.92-1.54,7.27,7.27,0,0,1-.33-2.35,8.51,8.51,0,0,1,.29-2.3,5.31,5.31,0,0,1,.84-1.72,3.64,3.64,0,0,1,1.31-1.07,3.76,3.76,0,0,1,1.7-.37,4,4,0,0,1,1.8.39A3.35,3.35,0,0,1,134,66.66a3.29,3.29,0,0,1,.58,1.52h-2.12a1.48,1.48,0,0,0-.52-.84,1.62,1.62,0,0,0-1-.3,1.66,1.66,0,0,0-1.51.87,4.7,4.7,0,0,0-.52,2.35H129a2.42,2.42,0,0,1,.61-.77,2.77,2.77,0,0,1,.89-.49,3.15,3.15,0,0,1,1.06-.18,3,3,0,0,1,1.61.43,3,3,0,0,1,1.12,1.16,3.71,3.71,0,0,1-.08,3.54,3.37,3.37,0,0,1-1.33,1.26A4.23,4.23,0,0,1,130.9,75.66Zm0-1.69a1.67,1.67,0,0,0,.89-.24,1.73,1.73,0,0,0,.61-.65,1.92,1.92,0,0,0,0-1.82,1.61,1.61,0,0,0-.6-.64,1.67,1.67,0,0,0-.89-.24,1.58,1.58,0,0,0-.69.14,1.75,1.75,0,0,0-.55.38,1.85,1.85,0,0,0-.37.58,1.93,1.93,0,0,0,.09,1.59,1.76,1.76,0,0,0,.62.65A1.59,1.59,0,0,0,130.89,74Zm9.33,1.77a3.8,3.8,0,0,1-2.2-.63,3.94,3.94,0,0,1-1.42-1.81,8.53,8.53,0,0,1,0-5.7A4,4,0,0,1,138,65.81a3.89,3.89,0,0,1,2.2-.61,3.84,3.84,0,0,1,2.2.61,3.89,3.89,0,0,1,1.42,1.79,7.29,7.29,0,0,1,.5,2.84,7.43,7.43,0,0,1-.5,2.86,4,4,0,0,1-1.41,1.82A3.9,3.9,0,0,1,140.22,75.74Zm0-1.78a1.59,1.59,0,0,0,1.4-.88,5.28,5.28,0,0,0,.52-2.64,6.54,6.54,0,0,0-.24-1.93,2.49,2.49,0,0,0-.67-1.16,1.44,1.44,0,0,0-1-.39,1.57,1.57,0,0,0-1.39.87,5.25,5.25,0,0,0-.53,2.61,6.85,6.85,0,0,0,.24,2,2.53,2.53,0,0,0,.67,1.17A1.47,1.47,0,0,0,140.22,74Zm13.67-4.37v1.68h-4.65V69.59Zm8.93,6.07a4.63,4.63,0,0,1-1.52-.27,3.46,3.46,0,0,1-1.3-.84,4,4,0,0,1-.91-1.54,7.25,7.25,0,0,1-.34-2.35,8.9,8.9,0,0,1,.3-2.3,5.1,5.1,0,0,1,.83-1.72,3.73,3.73,0,0,1,1.31-1.07,3.83,3.83,0,0,1,1.71-.37,4,4,0,0,1,1.8.39A3.43,3.43,0,0,1,166,66.66a3.17,3.17,0,0,1,.57,1.52H164.4a1.43,1.43,0,0,0-.52-.84,1.59,1.59,0,0,0-1-.3,1.67,1.67,0,0,0-1.52.87,4.7,4.7,0,0,0-.52,2.35h.07a2.32,2.32,0,0,1,.62-.77,2.67,2.67,0,0,1,.89-.49,3.11,3.11,0,0,1,1.06-.18,3,3,0,0,1,2.72,1.59,3.75,3.75,0,0,1-.07,3.54,3.46,3.46,0,0,1-1.34,1.26A4.2,4.2,0,0,1,162.82,75.66Zm0-1.69a1.67,1.67,0,0,0,.89-.24,1.76,1.76,0,0,0,.62-.65,2,2,0,0,0,0-1.82,1.7,1.7,0,0,0-.61-.64,1.64,1.64,0,0,0-.88-.24,1.58,1.58,0,0,0-.69.14,1.79,1.79,0,0,0-.56.38,2,2,0,0,0-.5,1.27,1.93,1.93,0,0,0,.22.9,1.84,1.84,0,0,0,.62.65A1.59,1.59,0,0,0,162.81,74Zm5.19-.24V72l4.25-6.69h1.46v2.34h-.86l-2.68,4.24V72h6v1.73Zm4.89,1.79V73.21l0-.75V65.34h2V75.52Z"/><path d="M212.85,75.66a4.58,4.58,0,0,1-1.51-.27,3.31,3.31,0,0,1-1.3-.84,4,4,0,0,1-.92-1.54,7.27,7.27,0,0,1-.33-2.35,8.51,8.51,0,0,1,.29-2.3,5.11,5.11,0,0,1,.84-1.72,3.7,3.7,0,0,1,1.3-1.07,3.83,3.83,0,0,1,1.71-.37,4,4,0,0,1,1.8.39A3.35,3.35,0,0,1,216,66.66a3.29,3.29,0,0,1,.58,1.52h-2.12a1.49,1.49,0,0,0-.53-.84,1.57,1.57,0,0,0-1-.3,1.65,1.65,0,0,0-1.51.87,4.6,4.6,0,0,0-.52,2.35H211a2.29,2.29,0,0,1,.61-.77,2.67,2.67,0,0,1,.89-.49,3.15,3.15,0,0,1,1.06-.18,3,3,0,0,1,2.72,1.59,3.4,3.4,0,0,1,.41,1.7,3.53,3.53,0,0,1-.48,1.84,3.4,3.4,0,0,1-1.34,1.26A4.2,4.2,0,0,1,212.85,75.66Zm0-1.69a1.65,1.65,0,0,0,.89-.24,1.68,1.68,0,0,0,.62-.65,2,2,0,0,0,0-1.82,1.7,1.7,0,0,0-.61-.64,1.61,1.61,0,0,0-.88-.24,1.58,1.58,0,0,0-.69.14,1.75,1.75,0,0,0-.55.38,1.85,1.85,0,0,0-.37.58,1.83,1.83,0,0,0,.7,2.24A1.62,1.62,0,0,0,212.84,74Zm9.07,1.69a4.33,4.33,0,0,1-1.88-.39,3.28,3.28,0,0,1-1.3-1.07,2.72,2.72,0,0,1-.51-1.56h2.09a1.27,1.27,0,0,0,.5,1,1.83,1.83,0,0,0,2,.14,1.54,1.54,0,0,0,.61-.63,1.89,1.89,0,0,0,.23-.93,1.94,1.94,0,0,0-.23-1,1.63,1.63,0,0,0-.62-.63,1.84,1.84,0,0,0-.91-.24,2,2,0,0,0-.87.19,1.51,1.51,0,0,0-.65.5l-1.92-.34.48-5.37h6.23V67.1H220.7l-.26,2.55h.06a1.84,1.84,0,0,1,.81-.63,2.79,2.79,0,0,1,1.21-.25,3.08,3.08,0,0,1,2.78,1.62,3.49,3.49,0,0,1,.41,1.73,3.38,3.38,0,0,1-.48,1.83,3.28,3.28,0,0,1-1.33,1.25A4.12,4.12,0,0,1,221.91,75.66Zm13.32-6.07v1.68h-4.64V69.59Zm5.43,5.93,4.22-8.35V67.1H240V65.34h7.15v1.78l-4.23,8.4ZM252.13,65.2a4.28,4.28,0,0,1,1.51.26,3.55,3.55,0,0,1,1.3.84,4,4,0,0,1,.91,1.53,7.15,7.15,0,0,1,.35,2.33,8.21,8.21,0,0,1-.3,2.32,5.15,5.15,0,0,1-.83,1.73,3.67,3.67,0,0,1-1.31,1.08,4,4,0,0,1-1.71.37,3.85,3.85,0,0,1-1.8-.4A3.26,3.26,0,0,1,249,74.19a3.4,3.4,0,0,1-.58-1.55h2.13a1.41,1.41,0,0,0,.52.87,1.57,1.57,0,0,0,1,.3,1.68,1.68,0,0,0,1.52-.86,4.83,4.83,0,0,0,.52-2.38H254a2.54,2.54,0,0,1-.62.77,3,3,0,0,1-.89.49,3.1,3.1,0,0,1-3.78-1.41,3.49,3.49,0,0,1-.4-1.69,3.4,3.4,0,0,1,.47-1.83,3.34,3.34,0,0,1,1.33-1.25A4,4,0,0,1,252.13,65.2Zm0,1.69a1.67,1.67,0,0,0-.89.24,1.73,1.73,0,0,0-.62.64,1.82,1.82,0,0,0-.22.9,1.93,1.93,0,0,0,.22.9,1.7,1.7,0,0,0,.61.64,1.72,1.72,0,0,0,.88.23,1.58,1.58,0,0,0,.69-.14,1.68,1.68,0,0,0,.56-.38,1.93,1.93,0,0,0,.37-.57,1.8,1.8,0,0,0,.13-.69,1.78,1.78,0,0,0-.23-.88,1.66,1.66,0,0,0-1.5-.89Z"/><path d="M292.78,75.66a5.23,5.23,0,0,1-2-.38,3.4,3.4,0,0,1-1.4-1,2.35,2.35,0,0,1-.51-1.48,2.44,2.44,0,0,1,.29-1.17A2.7,2.7,0,0,1,291,70.26v-.07a2.21,2.21,0,0,1-1.32-.79,2.26,2.26,0,0,1-.51-1.46,2.33,2.33,0,0,1,.46-1.41,3.06,3.06,0,0,1,1.27-1,4.88,4.88,0,0,1,3.68,0,3.06,3.06,0,0,1,1.27,1,2.37,2.37,0,0,1,.47,1.41,2.28,2.28,0,0,1-.52,1.46,2.21,2.21,0,0,1-1.31.79v.07a2.72,2.72,0,0,1,1.9,1.35,2.41,2.41,0,0,1-.21,2.65,3.4,3.4,0,0,1-1.4,1A5.19,5.19,0,0,1,292.78,75.66Zm0-1.58a2,2,0,0,0,.9-.19,1.47,1.47,0,0,0,.59-.51,1.48,1.48,0,0,0,0-1.55,1.52,1.52,0,0,0-.61-.54,1.9,1.9,0,0,0-.88-.2,1.93,1.93,0,0,0-.88.2,1.52,1.52,0,0,0-.61.54,1.35,1.35,0,0,0-.22.78,1.44,1.44,0,0,0,.21.77,1.53,1.53,0,0,0,.61.51A1.91,1.91,0,0,0,292.78,74.08Zm0-4.55a1.55,1.55,0,0,0,.76-.18,1.21,1.21,0,0,0,.52-.48,1.4,1.4,0,0,0,0-1.41,1.22,1.22,0,0,0-.51-.47,1.71,1.71,0,0,0-.77-.17A1.67,1.67,0,0,0,292,67a1.28,1.28,0,0,0-.53.47,1.35,1.35,0,0,0-.18.7,1.28,1.28,0,0,0,.19.71,1.21,1.21,0,0,0,.52.48A1.58,1.58,0,0,0,292.78,69.53Zm9.45,6.21a3.85,3.85,0,0,1-2.21-.63,4,4,0,0,1-1.41-1.81,7.47,7.47,0,0,1-.49-2.86,7.3,7.3,0,0,1,.49-2.84A4,4,0,0,1,300,65.81a4.27,4.27,0,0,1,4.4,0,4,4,0,0,1,1.42,1.79,7.12,7.12,0,0,1,.49,2.84,7.44,7.44,0,0,1-.49,2.86,4,4,0,0,1-1.42,1.82A3.85,3.85,0,0,1,302.23,75.74Zm0-1.78a1.6,1.6,0,0,0,1.4-.88,5.19,5.19,0,0,0,.51-2.64,6.57,6.57,0,0,0-.23-1.93,2.49,2.49,0,0,0-.67-1.16,1.44,1.44,0,0,0-1-.39,1.57,1.57,0,0,0-1.39.87,5.25,5.25,0,0,0-.53,2.61,6.85,6.85,0,0,0,.24,2,2.45,2.45,0,0,0,.67,1.17A1.44,1.44,0,0,0,302.23,74Zm13.67-4.37v1.68h-4.65V69.59Zm8.7-4.39a4.34,4.34,0,0,1,1.52.26,3.63,3.63,0,0,1,1.3.84,4.1,4.1,0,0,1,.91,1.53,7.17,7.17,0,0,1,.34,2.33,8.61,8.61,0,0,1-.29,2.32,5.15,5.15,0,0,1-.83,1.73,3.67,3.67,0,0,1-1.31,1.08,4,4,0,0,1-1.71.37,3.85,3.85,0,0,1-1.8-.4,3.37,3.37,0,0,1-1.26-1.07,3.5,3.5,0,0,1-.57-1.55H323a1.47,1.47,0,0,0,.53.87,1.57,1.57,0,0,0,1,.3A1.66,1.66,0,0,0,326,73a4.62,4.62,0,0,0,.52-2.38h-.07a2.5,2.5,0,0,1-.61.77,3.25,3.25,0,0,1-3.56.24,3,3,0,0,1-1.11-1.16,3.49,3.49,0,0,1-.41-1.69,3.59,3.59,0,0,1,.47-1.83,3.37,3.37,0,0,1,1.34-1.25A4,4,0,0,1,324.6,65.2Zm0,1.69a1.71,1.71,0,0,0-.9.24,1.78,1.78,0,0,0-.61.64,2,2,0,0,0,0,1.8,1.61,1.61,0,0,0,1.49.87,1.58,1.58,0,0,0,.69-.14,1.64,1.64,0,0,0,.55-.38,2,2,0,0,0,.38-.57,2,2,0,0,0,.13-.69,1.78,1.78,0,0,0-.23-.88,1.68,1.68,0,0,0-.62-.65A1.64,1.64,0,0,0,324.62,66.89ZM330,73.73V72l4.25-6.69h1.46v2.34h-.86l-2.68,4.24V72h6v1.73Zm4.89,1.79V73.21l0-.75V65.34h2V75.52Z"/><path d="M371.68,65.2a4.32,4.32,0,0,1,1.51.26,3.55,3.55,0,0,1,1.3.84,4,4,0,0,1,.91,1.53,6.9,6.9,0,0,1,.34,2.33,8.23,8.23,0,0,1-.29,2.32,5.15,5.15,0,0,1-.83,1.73,3.67,3.67,0,0,1-1.31,1.08,4,4,0,0,1-1.71.37,3.85,3.85,0,0,1-1.8-.4,3.26,3.26,0,0,1-1.25-1.07,3.4,3.4,0,0,1-.58-1.55h2.13a1.41,1.41,0,0,0,.52.87,1.57,1.57,0,0,0,1,.3,1.65,1.65,0,0,0,1.51-.86,4.71,4.71,0,0,0,.53-2.38h-.07a2.7,2.7,0,0,1-.62.77,3,3,0,0,1-.89.49,3.31,3.31,0,0,1-2.66-.25,3,3,0,0,1-1.12-1.16,3.71,3.71,0,0,1,.07-3.52,3.28,3.28,0,0,1,1.33-1.25A4,4,0,0,1,371.68,65.2Zm0,1.69a1.67,1.67,0,0,0-.89.24,1.73,1.73,0,0,0-.62.64,1.82,1.82,0,0,0-.22.9,1.93,1.93,0,0,0,.22.9,1.7,1.7,0,0,0,.61.64,1.72,1.72,0,0,0,.88.23,1.58,1.58,0,0,0,.69-.14,1.68,1.68,0,0,0,.56-.38,2.15,2.15,0,0,0,.37-.57,1.8,1.8,0,0,0,.13-.69,1.78,1.78,0,0,0-.23-.88,1.73,1.73,0,0,0-.61-.65A1.67,1.67,0,0,0,371.69,66.89ZM381,75.66a4.31,4.31,0,0,1-1.87-.39,3.31,3.31,0,0,1-1.31-1.07,2.71,2.71,0,0,1-.5-1.56h2.09a1.27,1.27,0,0,0,.5,1A1.71,1.71,0,0,0,381,74a1.77,1.77,0,0,0,.9-.23,1.54,1.54,0,0,0,.61-.63,1.88,1.88,0,0,0,.22-.93,1.93,1.93,0,0,0-.22-1,1.59,1.59,0,0,0-.63-.63,1.79,1.79,0,0,0-.91-.24,2.1,2.1,0,0,0-.87.19,1.64,1.64,0,0,0-.65.5l-1.91-.34.48-5.37h6.23V67.1h-4.45l-.27,2.55h.06a2,2,0,0,1,.81-.63,2.83,2.83,0,0,1,1.22-.25,3.08,3.08,0,0,1,2.78,1.62,3.6,3.6,0,0,1,.41,1.73,3.47,3.47,0,0,1-.48,1.83,3.3,3.3,0,0,1-1.34,1.25A4.09,4.09,0,0,1,381,75.66Zm13.33-6.07v1.68h-4.65V69.59Zm9.45-4.25V75.52h-2.15V67.38h-.06l-2.33,1.46V66.93l2.52-1.59Zm6.85,0V75.52h-2.15V67.38h-.06L406,68.84V66.93l2.52-1.59ZM417,75.74a3.8,3.8,0,0,1-2.2-.63,3.94,3.94,0,0,1-1.42-1.81,8.53,8.53,0,0,1,0-5.7,4,4,0,0,1,1.42-1.79,3.89,3.89,0,0,1,2.2-.61,3.84,3.84,0,0,1,2.2.61,3.89,3.89,0,0,1,1.42,1.79,7.29,7.29,0,0,1,.5,2.84,7.43,7.43,0,0,1-.5,2.86,4,4,0,0,1-1.41,1.82A3.9,3.9,0,0,1,417,75.74ZM417,74a1.59,1.59,0,0,0,1.4-.88,5.28,5.28,0,0,0,.52-2.64,6.54,6.54,0,0,0-.24-1.93,2.49,2.49,0,0,0-.67-1.16,1.44,1.44,0,0,0-1-.39,1.57,1.57,0,0,0-1.39.87,5.25,5.25,0,0,0-.53,2.61,6.85,6.85,0,0,0,.24,2,2.53,2.53,0,0,0,.67,1.17A1.47,1.47,0,0,0,417,74Z"/></svg>