<svg id="Layer_1" data-name="Layer 1" xmlns="http://www.w3.org/2000/svg" width="100" height="104.66" viewBox="0 0 100 104.66"><defs><style>.cls-1{fill:#feb404;fill-rule:evenodd;}</style></defs><title>suit-icon</title><path class="cls-1" d="M44.39,23.41l-.18-.14-.21.05a12.53,12.53,0,0,0-5.24,2.79,9.26,9.26,0,0,0-3.18,7V54.89h4.66V78.1a7.63,7.63,0,0,0-5.56,4.52l-.24.65H48.57l2.37-26.22,2.37,26.22H67.44l-.23-.65a7.67,7.67,0,0,0-5.56-4.52V54.89h4.66V33.16a9.26,9.26,0,0,0-3.18-7,12.53,12.53,0,0,0-5.24-2.79l-.22-.05-.17.14-.32.26a9.3,9.3,0,0,1-2,1.37,9.62,9.62,0,0,1-4.22.78A9.56,9.56,0,0,1,46.73,25a9.07,9.07,0,0,1-2-1.37Zm6.55,28.47.47-.05L53.77,78h6.95V35.39h.93V53.93h3.73V33.16a8.24,8.24,0,0,0-2.87-6.32,11.6,11.6,0,0,0-4.62-2.52l-.12.1a10.42,10.42,0,0,1-2.23,1.5,10.41,10.41,0,0,1-4.6.87,10.39,10.39,0,0,1-4.59-.87,10.42,10.42,0,0,1-2.23-1.5l-.13-.1a11.73,11.73,0,0,0-4.62,2.52,8.26,8.26,0,0,0-2.86,6.32V53.93h3.73V35.39h.93V78h6.95l2.36-26.13ZM48,78.93H41.19a6.88,6.88,0,0,0-5.33,3.38H47.73Zm6.13,3.38-.3-3.38H60.7A6.9,6.9,0,0,1,66,82.31Z"/></svg>