<svg id="Layer_1" data-name="Layer 1" xmlns="http://www.w3.org/2000/svg" width="38" height="62" viewBox="0 0 38 62"><defs><style>.cls-1{fill:#fbb315;}</style></defs><title>suit</title><path class="cls-1" d="M18.6,0c-1.24-.11-3.76.22-3.89,2.39H11.48A4.76,4.76,0,0,0,7.6,5.13c-.91,2-5.44,15.12-7.6,21.41l5,1.27,5.82-16.45L12,25.1,6,60.72,13.1,62,19,34.79,24.9,62,32,60.72,26,25.1l1.14-13.74L33,27.81l5-1.27c-2.16-6.29-6.69-19.37-7.6-21.41a4.76,4.76,0,0,0-3.88-2.72H23.29C23.16.24,20.64-.09,19.4,0l.17,25.56H18.43Z"/></svg>